<svg width="32" height="32" viewBox="0 0 32 32" fill="none" xmlns="http://www.w3.org/2000/svg">
<path d="M20 27C19.8684 27.0008 19.7379 26.9755 19.6161 26.9258C19.4943 26.876 19.3834 26.8027 19.29 26.71L10.71 18.12C10.1482 17.5575 9.83264 16.795 9.83264 16C9.83264 15.205 10.1482 14.4425 10.71 13.88L19.29 5.29C19.4783 5.1017 19.7337 4.99591 20 4.99591C20.2663 4.99591 20.5217 5.1017 20.71 5.29C20.8983 5.47831 21.0041 5.7337 21.0041 6C21.0041 6.2663 20.8983 6.5217 20.71 6.71L12.12 15.29C12.0263 15.383 11.9519 15.4936 11.9011 15.6154C11.8503 15.7373 11.8242 15.868 11.8242 16C11.8242 16.132 11.8503 16.2627 11.9011 16.3846C11.9519 16.5064 12.0263 16.617 12.12 16.71L20.71 25.29C20.8037 25.383 20.8781 25.4936 20.9289 25.6154C20.9797 25.7373 21.0058 25.868 21.0058 26C21.0058 26.132 20.9797 26.2627 20.9289 26.3846C20.8781 26.5064 20.8037 26.617 20.71 26.71C20.6166 26.8027 20.5057 26.876 20.3839 26.9258C20.2621 26.9755 20.1316 27.0008 20 27Z" fill="#BEE7E8"/>
</svg>
